<?xml version="1.0" encoding="utf-8"?>
<!-- Generator: Adobe Illustrator 22.1.0, SVG Export Plug-In . SVG Version: 6.00 Build 0)  -->
<svg version="1.1" id="Layer_1" xmlns="http://www.w3.org/2000/svg" xmlns:xlink="http://www.w3.org/1999/xlink" x="0px" y="0px"
	 viewBox="0 0 385.1 348.4" style="enable-background:new 0 0 385.1 348.4;" xml:space="preserve">
<g>
	<g>
		<path d="M331,253.9H128.5c-15,0-28.2-10.7-31.3-25.4L55.7,30c-0.9-4.4-4.9-7.6-9.3-7.6H16c-6.2,0-11.2-5-11.2-11.2S9.8,0,16,0
			h30.3c15,0,28.2,10.7,31.3,25.4l41.6,198.5c0.9,4.4,4.9,7.6,9.3,7.6H331c6.2,0,11.2,5,11.2,11.2S337.2,253.9,331,253.9z"/>
	</g>
	<g>
		<path d="M330.9,198.6H103.4v-22.4h227.6l31.7-113.6L73.1,62V39.6h289.1c7.2,0,13.9,3.3,18.2,9s5.8,13,3.9,20L353,181.8
			C350.3,191.7,341.2,198.6,330.9,198.6z"/>
	</g>
	<g>
		<path d="M142.8,348.4c-22,0-39.9-17.9-39.9-39.9c0-22,17.9-39.9,39.9-39.9s39.9,17.9,39.9,39.9
			C182.7,330.5,164.8,348.4,142.8,348.4z M142.8,291c-9.6,0-17.5,7.8-17.5,17.5s7.8,17.5,17.5,17.5s17.5-7.8,17.5-17.5
			C160.3,298.9,152.5,291,142.8,291z"/>
	</g>
	<g>
		<path d="M280.1,348.4c-22,0-39.9-17.9-39.9-39.9c0-22,17.9-39.9,39.9-39.9s39.9,17.9,39.9,39.9C320,330.5,302.1,348.4,280.1,348.4
			z M280.1,291c-9.6,0-17.5,7.8-17.5,17.5s7.8,17.5,17.5,17.5s17.5-7.8,17.5-17.5C297.6,298.9,289.8,291,280.1,291z"/>
	</g>
</g>
</svg>
