<?xml version="1.0" encoding="utf-8"?>
<!-- Generator: Adobe Illustrator 22.1.0, SVG Export Plug-In . SVG Version: 6.00 Build 0)  -->
<svg version="1.1" id="Layer_1" xmlns="http://www.w3.org/2000/svg" xmlns:xlink="http://www.w3.org/1999/xlink" x="0px" y="0px"
	 viewBox="0 0 293.4 270.9" style="enable-background:new 0 0 293.4 270.9;" xml:space="preserve">
<g>
	<path d="M93.8,270.9c13,0,23.6-10.6,23.6-23.6v-73.7c0-13-10.6-23.6-23.6-23.6h-7.5c-25.1,0-45.4,20.3-45.4,45.4v30.1
		c0,25.1,20.3,45.4,45.4,45.4L93.8,270.9L93.8,270.9z"/>
	<path d="M146.7,0C65.8,0,0,65.8,0,146.7v74.8c0,6.7,5.5,12.2,12.2,12.2s12.2-5.5,12.2-12.2v-74.8c0-67.5,54.9-122.4,122.4-122.4
		s122.4,54.9,122.4,122.4v74.8c0,6.7,5.5,12.2,12.2,12.2s12.2-5.5,12.2-12.2v-74.8C293.4,65.8,227.6,0,146.7,0z"/>
	<path d="M207,270.4c25.1,0,45.4-20.3,45.4-45.4v-30.1c0-25.1-20.3-45.4-45.4-45.4h-7.5c-13,0-23.6,10.6-23.6,23.6v73.7
		c0,13,10.6,23.6,23.6,23.6L207,270.4L207,270.4z"/>
</g>
</svg>
